<svg xmlns="http://www.w3.org/2000/svg" viewBox="0 0 128 128" width="128" height="128">
  <clipPath id="frame"><rect x="2" y="2" width="124" height="124" rx="26"/></clipPath>

  <rect x="2" y="2" width="124" height="124" rx="26" fill="#1A1A1A"/>

  <!-- background gears -->
  <g clip-path="url(#frame)">
    <g transform="translate(20,24)" fill="#71B417" opacity="0.18">
      <rect x="-3.5" y="-24" width="7" height="48"/>
      <rect x="-3.5" y="-24" width="7" height="48" transform="rotate(45)"/>
      <rect x="-3.5" y="-24" width="7" height="48" transform="rotate(90)"/>
      <rect x="-3.5" y="-24" width="7" height="48" transform="rotate(135)"/>
      <circle r="19"/>
      <circle r="8" fill="#1A1A1A"/>
    </g>
    <g transform="translate(116,88) rotate(22)" fill="#71B417" opacity="0.18">
      <rect x="-2.5" y="-17" width="5" height="34"/>
      <rect x="-2.5" y="-17" width="5" height="34" transform="rotate(45)"/>
      <rect x="-2.5" y="-17" width="5" height="34" transform="rotate(90)"/>
      <rect x="-2.5" y="-17" width="5" height="34" transform="rotate(135)"/>
      <circle r="13"/>
      <circle r="5.5" fill="#1A1A1A"/>
    </g>
  </g>

  <rect x="2" y="2" width="124" height="124" rx="26" fill="none" stroke="#71B417" stroke-width="2"/>

  <!-- spark -->
  <g fill="#A8E63C" stroke="#FFFFFF" stroke-width="1.5" stroke-linejoin="round">
    <path d="M96 18 L100 28 L110 32 L100 36 L96 46 L92 36 L82 32 L92 28 Z"/>
    <circle cx="78" cy="40" r="3"/>
    <circle cx="112" cy="44" r="2"/>
  </g>

  <!-- anvil -->
  <path fill="#71B417" stroke="#FFFFFF" stroke-width="1.5" stroke-linejoin="round" d="
    M 12 56
    C 24 48 36 46 50 46
    L 104 46
    Q 108 46 108 50
    L 108 60
    Q 108 64 104 64
    L 88 64
    C 85 70 81 74 80 82
    C 92 84 98 88 100 96
    L 28 96
    C 30 88 36 84 48 82
    C 48 74 46 69 44 64
    L 40 63
    C 28 62 18 60 12 56
    Z"/>
</svg>
